<svg xmlns="http://www.w3.org/2000/svg" xmlns:xlink="http://www.w3.org/1999/xlink" width="580" height="350.5"><g transform="translate(-280 -200)"><path d="M0 0h1360v1760H0z" fill="#fff"/><path d="M300 345c0-2.76 2.24-5 5-5h150c2.76 0 5 2.24 5 5v172.5c0 2.76-2.24 5-5 5H305c-2.76 0-5-2.24-5-5z" fill="#fff"/><path d="M300 345c0-2.76 2.24-5 5-5h150c2.76 0 5 2.24 5 5v172.5c0 2.76-2.24 5-5 5H305c-2.76 0-5-2.24-5-5zM300 380h160" stroke="#666" stroke-width="2" fill="none"/><use xlink:href="#a" transform="matrix(1,0,0,1,310,340) translate(50.55 23.6)"/><use xlink:href="#b" transform="matrix(1,0,0,1,305,382.5) translate(49.5 15.1)"/><use xlink:href="#c" transform="matrix(1,0,0,1,305,410.5) translate(45.074999999999996 15.1)"/><use xlink:href="#d" transform="matrix(1,0,0,1,305,438.5) translate(58.4 15.1)"/><use xlink:href="#e" transform="matrix(1,0,0,1,305,466.5) translate(47.099999999999994 15.1)"/><use xlink:href="#f" transform="matrix(1,0,0,1,305,494.5) translate(38.025 15.1)"/><path d="M640 345c0-2.76 2.24-5 5-5h190c2.76 0 5 2.24 5 5v60.5c0 2.76-2.24 5-5 5H645c-2.76 0-5-2.24-5-5z" fill="#fff"/><path d="M640 345c0-2.76 2.24-5 5-5h190c2.76 0 5 2.24 5 5v60.5c0 2.76-2.24 5-5 5H645c-2.76 0-5-2.24-5-5zM640 380h200" stroke="#666" stroke-width="2" fill="none"/><use xlink:href="#g" transform="matrix(1,0,0,1,650,340) translate(16.799999999999997 23.6)"/><use xlink:href="#h" transform="matrix(1,0,0,1,650,340) translate(78.75 23.6)"/><use xlink:href="#i" transform="matrix(1,0,0,1,645,382.5) translate(54.125 15.1)"/><use xlink:href="#j" transform="matrix(1,0,0,1,645,382.5) translate(87.975 15.1)"/><path d="M460 423.14h85c2.76 0 5-2.24 5-5v-52.4c0-2.77 2.24-5 5-5h85" stroke="#999" stroke-width="2" fill="none"/><path d="M481 433.14h-2v-20h2zM621 370.74h-2v-20h2z" fill="#999"/><path d="M640 465c0-2.76 2.24-5 5-5h190c2.76 0 5 2.24 5 5v60.5c0 2.76-2.24 5-5 5H645c-2.76 0-5-2.24-5-5z" fill="#fff"/><path d="M640 465c0-2.76 2.24-5 5-5h190c2.76 0 5 2.24 5 5v60.5c0 2.76-2.24 5-5 5H645c-2.76 0-5-2.24-5-5zM640 500h200" stroke="#666" stroke-width="2" fill="none"/><use xlink:href="#g" transform="matrix(1,0,0,1,650,460) translate(9.75 23.6)"/><use xlink:href="#k" transform="matrix(1,0,0,1,650,460) translate(71.7 23.6)"/><use xlink:href="#i" transform="matrix(1,0,0,1,645,502.5) translate(54.125 15.1)"/><use xlink:href="#j" transform="matrix(1,0,0,1,645,502.5) translate(87.975 15.1)"/><path d="M460 508.3h85c2.76 0 5-2.23 5-5v-17.56c0-2.77 2.24-5 5-5h85" stroke="#999" stroke-width="2" fill="none"/><path d="M481 518.3h-2v-20h2zM631 490.74h-2v-20h2z" fill="#999"/><path d="M620 480.74l-.5 3.16-1.43 2.74-2.16 2.17-2.74 1.43-3.16.5-3.16-.5-2.75-1.42-2.17-2.16-1.42-2.74-.5-3.16.5-3.17 1.43-2.74 2.16-2.17 2.74-1.4 3.16-.52 3.16.5 2.75 1.42 2.17 2.17 1.42 2.74z" fill="#fff"/><path d="M613.48 470.28l3.02 1.57 2.4 2.38 1.55 3.03.54 3.32-1 .16 1 .15-.55 3.3-1.56 3.04-2.4 2.38-3.02 1.57-3.48.55-3.48-.56-3.02-1.58-2.4-2.38-1.55-3.03-.56-3.46.55-3.48 1.56-3.03 2.4-2.38 3.02-1.57 3.48-.56zm-6.32 1.93l-2.47 1.28-1.95 1.95-1.28 2.46-.46 2.84.47 2.84 1.28 2.46 1.94 1.95 2.46 1.26 2.84.46 2.84-.46 2.47-1.27 1.95-1.96 1.28-2.46.46-2.84-.47-2.85-1.28-2.47-1.94-1.95-2.46-1.27-2.84-.45z" fill="#999"/><path d="M440 225c0-2.76 2.24-5 5-5h270c2.76 0 5 2.24 5 5v60.5c0 2.76-2.24 5-5 5H445c-2.76 0-5-2.24-5-5z" fill="none"/><g><use xlink:href="#l" transform="matrix(1,0,0,1,445,225) translate(15.422839506172835 38.05555555555556)"/><use xlink:href="#m" transform="matrix(1,0,0,1,445,225) translate(124.4537037037037 38.05555555555556)"/></g><defs><path fill="#333" d="M212-179c-10-28-35-45-73-45-59 0-87 40-87 99 0 60 29 101 89 101 43 0 62-24 78-52l27 14C228-24 195 4 139 4 59 4 22-46 18-125c-6-104 99-153 187-111 19 9 31 26 39 46" id="n"/><path fill="#333" d="M141-36C126-15 110 5 73 4 37 3 15-17 15-53c-1-64 63-63 125-63 3-35-9-54-41-54-24 1-41 7-42 31l-33-3c5-37 33-52 76-52 45 0 72 20 72 64v82c-1 20 7 32 28 27v20c-31 9-61-2-59-35zM48-53c0 20 12 33 32 33 41-3 63-29 60-74-43 2-92-5-92 41" id="o"/><path fill="#333" d="M114-163C36-179 61-72 57 0H25l-1-190h30c1 12-1 29 2 39 6-27 23-49 58-41v29" id="p"/><path fill="#333" d="M85-194c31 0 48 13 60 33l-1-100h32l1 261h-30c-2-10 0-23-3-31C134-8 116 4 85 4 32 4 16-35 15-94c0-66 23-100 70-100zm9 24c-40 0-46 34-46 75 0 40 6 74 45 74 42 0 51-32 51-76 0-42-9-74-50-73" id="q"/><g id="a"><use transform="matrix(0.05,0,0,0.05,0,0)" xlink:href="#n"/><use transform="matrix(0.05,0,0,0.05,12.950000000000001,0)" xlink:href="#o"/><use transform="matrix(0.05,0,0,0.05,22.950000000000003,0)" xlink:href="#p"/><use transform="matrix(0.05,0,0,0.05,28.900000000000002,0)" xlink:href="#q"/></g><path fill="#333" d="M185-189c-5-48-123-54-124 2 14 75 158 14 163 119 3 78-121 87-175 55-17-10-28-26-33-46l33-7c5 56 141 63 141-1 0-78-155-14-162-118-5-82 145-84 179-34 5 7 8 16 11 25" id="r"/><path fill="#333" d="M59-47c-2 24 18 29 38 22v24C64 9 27 4 27-40v-127H5v-23h24l9-43h21v43h35v23H59v120" id="s"/><path fill="#333" d="M84 4C-5 8 30-112 23-190h32v120c0 31 7 50 39 49 72-2 45-101 50-169h31l1 190h-30c-1-10 1-25-2-33-11 22-28 36-60 37" id="t"/><path fill="#333" d="M135-143c-3-34-86-38-87 0 15 53 115 12 119 90S17 21 10-45l28-5c4 36 97 45 98 0-10-56-113-15-118-90-4-57 82-63 122-42 12 7 21 19 24 35" id="u"/><g id="b"><use transform="matrix(0.05,0,0,0.05,0,0)" xlink:href="#r"/><use transform="matrix(0.05,0,0,0.05,12,0)" xlink:href="#s"/><use transform="matrix(0.05,0,0,0.05,17,0)" xlink:href="#o"/><use transform="matrix(0.05,0,0,0.05,27,0)" xlink:href="#s"/><use transform="matrix(0.05,0,0,0.05,32,0)" xlink:href="#t"/><use transform="matrix(0.05,0,0,0.05,42,0)" xlink:href="#u"/></g><path fill="#333" d="M100-194c63 0 86 42 84 106H49c0 40 14 67 53 68 26 1 43-12 49-29l28 8c-11 28-37 45-77 45C44 4 14-33 15-96c1-61 26-98 85-98zm52 81c6-60-76-77-97-28-3 7-6 17-6 28h103" id="v"/><path fill="#333" d="M100-194c62-1 85 37 85 99 1 63-27 99-86 99S16-35 15-95c0-66 28-99 85-99zM99-20c44 1 53-31 53-75 0-43-8-75-51-75s-53 32-53 75 10 74 51 75" id="w"/><g id="c"><use transform="matrix(0.05,0,0,0.05,0,0)" xlink:href="#n"/><use transform="matrix(0.05,0,0,0.05,12.950000000000001,0)" xlink:href="#p"/><use transform="matrix(0.05,0,0,0.05,18.900000000000002,0)" xlink:href="#v"/><use transform="matrix(0.05,0,0,0.05,28.900000000000002,0)" xlink:href="#o"/><use transform="matrix(0.05,0,0,0.05,38.900000000000006,0)" xlink:href="#s"/><use transform="matrix(0.05,0,0,0.05,43.900000000000006,0)" xlink:href="#w"/><use transform="matrix(0.05,0,0,0.05,53.900000000000006,0)" xlink:href="#p"/></g><path fill="#333" d="M127-220V0H93v-220H8v-28h204v28h-85" id="x"/><path fill="#333" d="M24-231v-30h32v30H24zM24 0v-190h32V0H24" id="y"/><path fill="#333" d="M24 0v-261h32V0H24" id="z"/><g id="d"><use transform="matrix(0.05,0,0,0.05,0,0)" xlink:href="#x"/><use transform="matrix(0.05,0,0,0.05,10.3,0)" xlink:href="#y"/><use transform="matrix(0.05,0,0,0.05,14.25,0)" xlink:href="#s"/><use transform="matrix(0.05,0,0,0.05,19.25,0)" xlink:href="#z"/><use transform="matrix(0.05,0,0,0.05,23.2,0)" xlink:href="#v"/></g><path fill="#333" d="M30-248c87 1 191-15 191 75 0 78-77 80-158 76V0H30v-248zm33 125c57 0 124 11 124-50 0-59-68-47-124-48v98" id="A"/><path fill="#333" d="M179-190L93 31C79 59 56 82 12 73V49c39 6 53-20 64-50L1-190h34L92-34l54-156h33" id="B"/><g id="e"><use transform="matrix(0.05,0,0,0.05,0,0)" xlink:href="#A"/><use transform="matrix(0.05,0,0,0.05,12,0)" xlink:href="#p"/><use transform="matrix(0.05,0,0,0.05,17.95,0)" xlink:href="#y"/><use transform="matrix(0.05,0,0,0.05,21.9,0)" xlink:href="#w"/><use transform="matrix(0.05,0,0,0.05,31.899999999999995,0)" xlink:href="#p"/><use transform="matrix(0.05,0,0,0.05,37.85,0)" xlink:href="#y"/><use transform="matrix(0.05,0,0,0.05,41.800000000000004,0)" xlink:href="#s"/><use transform="matrix(0.05,0,0,0.05,46.800000000000004,0)" xlink:href="#B"/></g><path fill="#333" d="M205 0l-28-72H64L36 0H1l101-248h38L239 0h-34zm-38-99l-47-123c-12 45-31 82-46 123h93" id="C"/><path fill="#333" d="M177-190C167-65 218 103 67 71c-23-6-38-20-44-43l32-5c15 47 100 32 89-28v-30C133-14 115 1 83 1 29 1 15-40 15-95c0-56 16-97 71-98 29-1 48 16 59 35 1-10 0-23 2-32h30zM94-22c36 0 50-32 50-73 0-42-14-75-50-75-39 0-46 34-46 75s6 73 46 73" id="D"/><path fill="#333" d="M117-194c89-4 53 116 60 194h-32v-121c0-31-8-49-39-48C34-167 62-67 57 0H25l-1-190h30c1 10-1 24 2 32 11-22 29-35 61-36" id="E"/><g id="f"><use transform="matrix(0.05,0,0,0.05,0,0)" xlink:href="#C"/><use transform="matrix(0.05,0,0,0.05,12,0)" xlink:href="#u"/><use transform="matrix(0.05,0,0,0.05,21,0)" xlink:href="#u"/><use transform="matrix(0.05,0,0,0.05,30,0)" xlink:href="#y"/><use transform="matrix(0.05,0,0,0.05,33.95,0)" xlink:href="#D"/><use transform="matrix(0.05,0,0,0.05,43.95,0)" xlink:href="#E"/><use transform="matrix(0.05,0,0,0.05,53.95,0)" xlink:href="#v"/><use transform="matrix(0.05,0,0,0.05,63.95,0)" xlink:href="#v"/></g><g id="g"><use transform="matrix(0.05,0,0,0.05,0,0)" xlink:href="#A"/><use transform="matrix(0.05,0,0,0.05,12,0)" xlink:href="#v"/><use transform="matrix(0.05,0,0,0.05,22,0)" xlink:href="#p"/><use transform="matrix(0.05,0,0,0.05,27.950000000000003,0)" xlink:href="#u"/><use transform="matrix(0.05,0,0,0.05,36.95,0)" xlink:href="#w"/><use transform="matrix(0.05,0,0,0.05,46.95,0)" xlink:href="#E"/></g><path fill="#333" d="M87 75C49 33 22-17 22-94c0-76 28-126 65-167h31c-38 41-64 92-64 168S80 34 118 75H87" id="F"/><path fill="#333" d="M109-170H84l-4-78h32zm-65 0H19l-4-78h33" id="G"/><path fill="#333" d="M33-261c38 41 65 92 65 168S71 34 33 75H2C39 34 66-17 66-93S39-220 2-261h31" id="H"/><g id="h"><use transform="matrix(0.05,0,0,0.05,0,0)" xlink:href="#F"/><use transform="matrix(0.05,0,0,0.05,5.95,0)" xlink:href="#G"/><use transform="matrix(0.05,0,0,0.05,12.3,0)" xlink:href="#n"/><use transform="matrix(0.05,0,0,0.05,25.25,0)" xlink:href="#p"/><use transform="matrix(0.05,0,0,0.05,31.200000000000003,0)" xlink:href="#v"/><use transform="matrix(0.05,0,0,0.05,41.2,0)" xlink:href="#o"/><use transform="matrix(0.05,0,0,0.05,51.2,0)" xlink:href="#s"/><use transform="matrix(0.05,0,0,0.05,56.2,0)" xlink:href="#w"/><use transform="matrix(0.05,0,0,0.05,66.2,0)" xlink:href="#p"/><use transform="matrix(0.05,0,0,0.05,72.15,0)" xlink:href="#G"/><use transform="matrix(0.05,0,0,0.05,78.5,0)" xlink:href="#H"/></g><path fill="#333" d="M63-220v92h138v28H63V0H30v-248h175v28H63" id="I"/><g id="i"><use transform="matrix(0.05,0,0,0.05,0,0)" xlink:href="#I"/><use transform="matrix(0.05,0,0,0.05,10.950000000000001,0)" xlink:href="#t"/><use transform="matrix(0.05,0,0,0.05,20.950000000000003,0)" xlink:href="#z"/><use transform="matrix(0.05,0,0,0.05,24.900000000000002,0)" xlink:href="#z"/></g><path fill="#333" d="M190 0L58-211 59 0H30v-248h39L202-35l-2-213h31V0h-41" id="J"/><path fill="#333" d="M210-169c-67 3-38 105-44 169h-31v-121c0-29-5-50-35-48C34-165 62-65 56 0H25l-1-190h30c1 10-1 24 2 32 10-44 99-50 107 0 11-21 27-35 58-36 85-2 47 119 55 194h-31v-121c0-29-5-49-35-48" id="K"/><g id="j"><use transform="matrix(0.05,0,0,0.05,0,0)" xlink:href="#J"/><use transform="matrix(0.05,0,0,0.05,12.950000000000001,0)" xlink:href="#o"/><use transform="matrix(0.05,0,0,0.05,22.950000000000003,0)" xlink:href="#K"/><use transform="matrix(0.05,0,0,0.05,37.900000000000006,0)" xlink:href="#v"/></g><g id="k"><use transform="matrix(0.05,0,0,0.05,0,0)" xlink:href="#F"/><use transform="matrix(0.05,0,0,0.05,5.95,0)" xlink:href="#G"/><use transform="matrix(0.05,0,0,0.05,12.3,0)" xlink:href="#C"/><use transform="matrix(0.05,0,0,0.05,24.3,0)" xlink:href="#u"/><use transform="matrix(0.05,0,0,0.05,33.3,0)" xlink:href="#u"/><use transform="matrix(0.05,0,0,0.05,42.3,0)" xlink:href="#y"/><use transform="matrix(0.05,0,0,0.05,46.25,0)" xlink:href="#D"/><use transform="matrix(0.05,0,0,0.05,56.25,0)" xlink:href="#E"/><use transform="matrix(0.05,0,0,0.05,66.25,0)" xlink:href="#v"/><use transform="matrix(0.05,0,0,0.05,76.25,0)" xlink:href="#v"/><use transform="matrix(0.05,0,0,0.05,86.25,0)" xlink:href="#G"/><use transform="matrix(0.05,0,0,0.05,92.6,0)" xlink:href="#H"/></g><path fill="#333" d="M233-177c-1 41-23 64-60 70L243 0h-38l-65-103H63V0H30v-248c88 3 205-21 203 71zM63-129c60-2 137 13 137-47 0-61-80-42-137-45v92" id="L"/><path fill="#333" d="M96-169c-40 0-48 33-48 73s9 75 48 75c24 0 41-14 43-38l32 2c-6 37-31 61-74 61-59 0-76-41-82-99-10-93 101-131 147-64 4 7 5 14 7 22l-32 3c-4-21-16-35-41-35" id="M"/><g id="l"><use transform="matrix(0.10493827160493828,0,0,0.10493827160493828,0,0)" xlink:href="#L"/><use transform="matrix(0.10493827160493828,0,0,0.10493827160493828,27.179012345679013,0)" xlink:href="#v"/><use transform="matrix(0.10493827160493828,0,0,0.10493827160493828,48.16666666666667,0)" xlink:href="#o"/><use transform="matrix(0.10493827160493828,0,0,0.10493827160493828,69.15432098765433,0)" xlink:href="#M"/><use transform="matrix(0.10493827160493828,0,0,0.10493827160493828,88.04320987654322,0)" xlink:href="#s"/></g><path fill="#333" d="M194 0L95-120 63-95V0H30v-248h33v124l119-124h40L117-140 236 0h-42" id="N"/><path fill="#333" d="M115-194c53 0 69 39 70 98 0 66-23 100-70 100C84 3 66-7 56-30L54 0H23l1-261h32v101c10-23 28-34 59-34zm-8 174c40 0 45-34 45-75 0-40-5-75-45-74-42 0-51 32-51 76 0 43 10 73 51 73" id="O"/><g id="m"><use transform="matrix(0.10493827160493828,0,0,0.10493827160493828,0,0)" xlink:href="#N"/><use transform="matrix(0.10493827160493828,0,0,0.10493827160493828,25.185185185185187,0)" xlink:href="#o"/><use transform="matrix(0.10493827160493828,0,0,0.10493827160493828,46.17283950617284,0)" xlink:href="#E"/><use transform="matrix(0.10493827160493828,0,0,0.10493827160493828,67.1604938271605,0)" xlink:href="#O"/><use transform="matrix(0.10493827160493828,0,0,0.10493827160493828,88.14814814814815,0)" xlink:href="#o"/><use transform="matrix(0.10493827160493828,0,0,0.10493827160493828,109.13580246913581,0)" xlink:href="#E"/></g></defs></g></svg>